<svg id="Capa_1" data-name="Capa 1" xmlns="http://www.w3.org/2000/svg" viewBox="0 0 205 179.38"><defs><style>.cls-1{fill:#78a2e8;}</style></defs><title>icon-travels</title><g id="_Grupo_" data-name="&lt;Grupo&gt;"><path id="_Trazado_compuesto_" data-name="&lt;Trazado compuesto&gt;" class="cls-1" d="M192.5,40H147.45c0-21.75-19-39.38-42.45-39.38S62.55,18.25,62.55,40h-45C9.22,40,2,46.72,2,55V83.07a243.23,243.23,0,0,0,88,22.48V90h30v15.55a233.16,233.16,0,0,0,87-22.48V55C207,46.72,200.78,40,192.5,40ZM105,15.15c15.39,0,27.92,11.15,27.92,24.85H77.08C77.08,26.3,89.61,15.15,105,15.15Z" transform="translate(-2 -0.62)"/><path id="_Trazado_" data-name="&lt;Trazado&gt;" class="cls-1" d="M120,140H90V120.68A260.91,260.91,0,0,1,2,99.54V165c0,8.28,7.22,15,15.5,15h175c8.28,0,14.5-6.72,14.5-15V99.54a249.89,249.89,0,0,1-87,21.14Z" transform="translate(-2 -0.62)"/></g></svg>