<svg id="Capa_1" data-name="Capa 1" xmlns="http://www.w3.org/2000/svg" viewBox="0 0 237.66 254.83"><defs><style>.cls-1{fill:#78a2e8;}</style></defs><title>icon-price</title><ellipse id="_Trazado_" data-name="&lt;Trazado&gt;" class="cls-1" cx="74.83" cy="141.41" rx="74.83" ry="37.41"/><ellipse id="_Trazado_2" data-name="&lt;Trazado&gt;" class="cls-1" cx="162.83" cy="37.41" rx="74.83" ry="37.41"/><path id="_Trazado_3" data-name="&lt;Trazado&gt;" class="cls-1" d="M174.36,108.73c-38.52,0-70.23-14.56-74.36-33.27V90.31c0,20.67,33.11,37.42,74.44,37.42S249,111,249,90.31V73.84C246.4,93.33,214,108.73,174.36,108.73Z" transform="translate(-11.53 -14.65)"/><path id="_Trazado_4" data-name="&lt;Trazado&gt;" class="cls-1" d="M174.44,166c41.33,0,74.56-16.75,74.56-37.42V112.09C246.4,131.58,214,147,174.36,147Z" transform="translate(-11.53 -14.65)"/><path id="_Trazado_5" data-name="&lt;Trazado&gt;" class="cls-1" d="M174.44,204.23c41.33,0,74.56-16.75,74.56-37.42V150.34c-2.6,19.49-35,34.89-74.64,34.89Z" transform="translate(-11.53 -14.65)"/><path id="_Trazado_6" data-name="&lt;Trazado&gt;" class="cls-1" d="M174.44,242.48c41.33,0,74.56-16.75,74.56-37.42V188.59c-2.6,19.49-35,34.89-74.64,34.89Z" transform="translate(-11.53 -14.65)"/><path id="_Trazado_7" data-name="&lt;Trazado&gt;" class="cls-1" d="M86.36,212.48c-38.52,0-70.23-14.56-74.36-33.27v14.85c0,20.67,33.11,37.42,74.44,37.42S161,214.73,161,194.06V177.59C158.4,197.08,126,212.48,86.36,212.48Z" transform="translate(-11.53 -14.65)"/><path id="_Trazado_8" data-name="&lt;Trazado&gt;" class="cls-1" d="M86.36,250.48c-38.52,0-70.23-14.56-74.36-33.27v14.85c0,20.67,33.11,37.42,74.44,37.42S161,252.73,161,232.06V215.59C158.4,235.08,126,250.48,86.36,250.48Z" transform="translate(-11.53 -14.65)"/></svg>