<svg id="Capa_1" data-name="Capa 1" xmlns="http://www.w3.org/2000/svg" viewBox="0 0 266 203"><defs><style>.cls-1{fill:#78a2e8;}</style></defs><title>icon-distance-map</title><polygon id="_Trazado_" data-name="&lt;Trazado&gt;" class="cls-1" points="174.57 143 75.55 143 86.6 98 58.02 98 30.29 182 179.97 182 174.57 143"/><polygon id="_Trazado_2" data-name="&lt;Trazado&gt;" class="cls-1" points="221.17 143 184.66 143 190.07 182 233.77 182 221.17 143"/><g id="_Grupo_" data-name="&lt;Grupo&gt;"><polygon id="_Trazado_3" data-name="&lt;Trazado&gt;" class="cls-1" points="170.45 98 142.58 98 156.56 117.9 170.45 98"/><polygon id="_Trazado_4" data-name="&lt;Trazado&gt;" class="cls-1" points="206.71 98 182.64 98 164.76 123.62 158.21 133 173.19 133 178.5 133 217.97 133 206.71 98"/><polygon id="_Trazado_5" data-name="&lt;Trazado&gt;" class="cls-1" points="148.38 123.64 130.36 98 96.89 98 88.29 133 154.95 133 148.38 123.64"/></g><g id="_Grupo_2" data-name="&lt;Grupo&gt;"><polygon id="_Trazado_6" data-name="&lt;Trazado&gt;" class="cls-1" points="128.53 78 135.56 88 177.43 88 184.41 78 128.53 78"/><polygon id="_Trazado_7" data-name="&lt;Trazado&gt;" class="cls-1" points="226 78 196.6 78 189.62 88 214 88 247.47 192 16.48 192 50.78 88 123.33 88 116.31 78 41 78 0 203 266 203 226 78"/></g><path id="_Trazado_compuesto_" data-name="&lt;Trazado compuesto&gt;" class="cls-1" d="M162.94,0a43,43,0,0,0-36.69,65.5l36.81,52.4,36.57-52.4A43,43,0,0,0,162.94,0Zm0,59a15.62,15.62,0,1,1,15.62-15.62A15.62,15.62,0,0,1,162.94,59Z" transform="translate(-6.5)"/></svg>