<svg id="Capa_1" data-name="Capa 1" xmlns="http://www.w3.org/2000/svg" viewBox="0 0 18 16"><defs><style>.cls-1{fill:#fff;}</style></defs><title>memicon-verification</title><g id="_Grupo_" data-name="&lt;Grupo&gt;"><rect id="_Rectángulo_" data-name="&lt;Rectángulo&gt;" class="cls-1" y="7" width="3" height="9"/><polygon id="_Trazado_" data-name="&lt;Trazado&gt;" class="cls-1" points="17 7 4.27 7 4.27 16 14.18 16 17 7"/><path id="_Rectángulo_2" data-name="&lt;Rectángulo&gt;" class="cls-1" d="M11.6,14h3a1,1,0,0,1,1,1v0a1,1,0,0,1-1,1h-3a0,0,0,0,1,0,0V14A0,0,0,0,1,11.6,14Z"/><path id="_Rectángulo_3" data-name="&lt;Rectángulo&gt;" class="cls-1" d="M14,7h3a1,1,0,0,1,1,1V8a1,1,0,0,1-1,1H14a0,0,0,0,1,0,0V7A0,0,0,0,1,14,7Z"/><path id="_Rectángulo_4" data-name="&lt;Rectángulo&gt;" class="cls-1" d="M13.3,9.33h3a1,1,0,0,1,1,1v0a1,1,0,0,1-1,1h-3a0,0,0,0,1,0,0v-2a0,0,0,0,1,0,0Z"/><path id="_Rectángulo_5" data-name="&lt;Rectángulo&gt;" class="cls-1" d="M12.47,11.67h3a1,1,0,0,1,1,1v0a1,1,0,0,1-1,1h-3a0,0,0,0,1,0,0v-2A0,0,0,0,1,12.47,11.67Z"/><path id="_Trazado_2" data-name="&lt;Trazado&gt;" class="cls-1" d="M4.27,7S7.32,5.85,7.86,1.37A1.57,1.57,0,0,1,9.43,0h0a1.6,1.6,0,0,1,1.61,1.61c0,1.6-.29,4-1.66,5.39Z" transform="translate(0 0)"/><path id="_Trazado_3" data-name="&lt;Trazado&gt;" class="cls-1" d="M10.25,5.83S9.42,7,10.63,7l-1.21.61L4.27,7.5l1-.5" transform="translate(0 0)"/></g></svg>