<svg id="Capa_1" data-name="Capa 1" xmlns="http://www.w3.org/2000/svg" viewBox="0 0 15 16"><defs><style>.cls-1{fill:#fff;}</style></defs><title>memicon-edit</title><g id="_Grupo_" data-name="&lt;Grupo&gt;"><path id="_Trazado_" data-name="&lt;Trazado&gt;" class="cls-1" d="M10.85,5.06a2.81,2.81,0,0,0,0-.29c0-1.46-.22-3.3-1.49-4.21A3.24,3.24,0,0,0,5,1.29a6.34,6.34,0,0,0-.79,3.48,2.53,2.53,0,0,0,0,.28c-.49,0-.65.75-.45,1.49A1.79,1.79,0,0,0,5,7.71,4.25,4.25,0,0,0,6.6,9.28C8,10,9.25,8.92,10,7.71a1.81,1.81,0,0,0,1.27-1.17C11.48,5.81,11.33,5.11,10.85,5.06Z" transform="translate(0 0)"/><rect id="_Trazado_2" data-name="&lt;Trazado&gt;" class="cls-1" x="6.1" y="7.4" width="2.8" height="3"/><path id="_Trazado_3" data-name="&lt;Trazado&gt;" class="cls-1" d="M15,15.67c0-3.15-3.46-5.88-7.47-5.88C3.81,9.79,0,12.52,0,15.67V16H15Z" transform="translate(0 0)"/></g></svg>