<svg id="Capa_1" data-name="Capa 1" xmlns="http://www.w3.org/2000/svg" viewBox="0 0 15 12"><defs><style>.cls-1{fill:#fff;}</style></defs><title>memicon-photos</title><g id="_Grupo_" data-name="&lt;Grupo&gt;"><g id="_Grupo_2" data-name="&lt;Grupo&gt;"><path id="_Trazado_" data-name="&lt;Trazado&gt;" class="cls-1" d="M7.5,3.59A2.76,2.76,0,0,0,4.81,6.4,2.75,2.75,0,0,0,7.5,9.2a2.75,2.75,0,0,0,2.69-2.8A2.76,2.76,0,0,0,7.5,3.59Z"/><path id="_Trazado_compuesto_" data-name="&lt;Trazado compuesto&gt;" class="cls-1" d="M15,3a1,1,0,0,0-1-1H1A1,1,0,0,0,0,3v8a1,1,0,0,0,1,1H14a1,1,0,0,0,1-1ZM7.5,10.7A4.25,4.25,0,0,1,3.31,6.4,4.25,4.25,0,0,1,7.5,2.09,4.25,4.25,0,0,1,11.69,6.4,4.25,4.25,0,0,1,7.5,10.7Z"/></g><path id="_Trazado_2" data-name="&lt;Trazado&gt;" class="cls-1" d="M10,2h.44L9.69.3A.5.5,0,0,0,9.24,0H5.77a.51.51,0,0,0-.46.3L4.56,2H10Z"/></g></svg>