<svg id="Capa_1" data-name="Capa 1" xmlns="http://www.w3.org/2000/svg" viewBox="0 0 178.16 160"><defs><style>.cls-1{fill:#78a2e8;}</style></defs><title>memicon-suggested-sel</title><path id="_Trazado_" data-name="&lt;Trazado&gt;" class="cls-1" d="M96,110v20H81V110H10v35a15,15,0,0,0,15,15H155a15,15,0,0,0,15-15V110Z" transform="translate(-0.92)"/><path id="_Trazado_compuesto_" data-name="&lt;Trazado compuesto&gt;" class="cls-1" d="M179.05,83.86,176.84,47a14.89,14.89,0,0,0-15-14H125V23.3A23.3,23.3,0,0,0,101.7,0H78.3A23.3,23.3,0,0,0,55,23.3V33H18.13a14.78,14.78,0,0,0-15,13.86L1,84a15.1,15.1,0,0,0,15,16H81V80H96v20h68.08A15.21,15.21,0,0,0,179.05,83.86ZM113,33H67V23.3A11.31,11.31,0,0,1,78.3,12h23.4A11.31,11.31,0,0,1,113,23.3Z" transform="translate(-0.92)"/></svg>