<svg id="Capa_1" data-name="Capa 1" xmlns="http://www.w3.org/2000/svg" viewBox="0 0 17 17"><defs><style>.cls-1{fill:#fff;}.cls-2{fill:#7aa3e6;}</style></defs><title>memicon-questions</title><circle id="_Trazado_" data-name="&lt;Trazado&gt;" class="cls-1" cx="8.5" cy="8.5" r="8.5"/><polygon id="_Trazado_2" data-name="&lt;Trazado&gt;" class="cls-1" points="1.63 13.33 0 17 3.67 15.38 1.63 13.33"/><g id="_Grupo_" data-name="&lt;Grupo&gt;"><path id="_Trazado_3" data-name="&lt;Trazado&gt;" class="cls-2" d="M8.38,5.18c.75,0,1.2.27,1.2,1C9.58,7.68,7.7,8,7.7,10H9.39c0-2,2.26-2,2.26-4.22,0-1.62-1.2-2.48-3.06-2.48A2.93,2.93,0,0,0,5.48,5.6l1.66.64A1.15,1.15,0,0,1,8.38,5.18Z"/><path id="_Trazado_4" data-name="&lt;Trazado&gt;" class="cls-2" d="M8.53,11.36a1.08,1.08,0,0,0-1.12,1.15,1.1,1.1,0,0,0,1.12,1.16,1.11,1.11,0,0,0,1.12-1.16A1.09,1.09,0,0,0,8.53,11.36Z"/></g></svg>