<svg id="Capa_1" data-name="Capa 1" xmlns="http://www.w3.org/2000/svg" viewBox="0 0 155.81 196.27"><defs><style>.cls-1{fill:#fff;}</style></defs><title>memicon-qualifications</title><g id="_Grupo_" data-name="&lt;Grupo&gt;"><g id="_Grupo_2" data-name="&lt;Grupo&gt;"><circle id="_Trazado_" data-name="&lt;Trazado&gt;" class="cls-1" cx="123.64" cy="139.71" r="14.72"/><path id="_Trazado_compuesto_" data-name="&lt;Trazado compuesto&gt;" class="cls-1" d="M127.26,110.63a30.08,30.08,0,1,0,30.08,30.08A30.08,30.08,0,0,0,127.26,110.63Zm0,51.81A21.73,21.73,0,1,1,149,140.71,21.73,21.73,0,0,1,127.26,162.44Z" transform="translate(-3.63 -1)"/><path id="_Trazado_2" data-name="&lt;Trazado&gt;" class="cls-1" d="M95.09,189.87l13.13-4.43,7.21,11.83,8.4-23.08a33.49,33.49,0,0,1-19.72-9.1Z" transform="translate(-3.63 -1)"/><path id="_Trazado_3" data-name="&lt;Trazado&gt;" class="cls-1" d="M130.7,174.19l8.4,23.08,7.21-11.83,13.13,4.43-9-24.78A33.52,33.52,0,0,1,130.7,174.19Z" transform="translate(-3.63 -1)"/></g><path id="_Trazado_compuesto_2" data-name="&lt;Trazado compuesto&gt;" class="cls-1" d="M152,13.51h0A23.09,23.09,0,0,0,131.47,1h-106A22,22,0,0,0,3.63,23H117V33H28.3c5.51,15,3.83,34.56-5.07,47.45C5.38,106.35,5.38,148,23.23,174H93.42l4.07-11.2a37.06,37.06,0,0,1,37.11-58.43,75.53,75.53,0,0,1,10.68-24.13C157.75,62.16,160,34.77,152,13.51ZM106.83,102H38.89l2-7h68.94ZM108,84H45l3-7h63Zm2.17-19H52.69l3-7h57.47Z" transform="translate(-3.63 -1)"/></g></svg>