<svg id="Capa_1" data-name="Capa 1" xmlns="http://www.w3.org/2000/svg" viewBox="0 0 14 17"><defs><style>.cls-1{fill:#666;}.cls-2{fill:#f7931e;}</style></defs><title>memicon-articles</title><g id="_Grupo_" data-name="&lt;Grupo&gt;"><rect id="_Rectángulo_" data-name="&lt;Rectángulo&gt;" class="cls-1" x="2.82" y="5.99" width="4.06" height="1"/><rect id="_Rectángulo_2" data-name="&lt;Rectángulo&gt;" class="cls-1" x="2.82" y="8.38" width="7.9" height="1"/><rect id="_Rectángulo_3" data-name="&lt;Rectángulo&gt;" class="cls-1" x="2.82" y="10.76" width="7.9" height="1"/><rect id="_Rectángulo_4" data-name="&lt;Rectángulo&gt;" class="cls-1" x="2.82" y="13.15" width="7.9" height="1.62"/><path id="_Trazado_compuesto_" data-name="&lt;Trazado compuesto&gt;" class="cls-1" d="M9.44.5A2.11,2.11,0,0,0,8.08,0H1.88A1.91,1.91,0,0,0,0,2V15a1.91,1.91,0,0,0,1.88,2h10A2.11,2.11,0,0,0,14,15V5.22a2.15,2.15,0,0,0-.81-1.62Zm1.74,15.3H2.58a1.5,1.5,0,0,1-1.5-1.5V2.7a1.5,1.5,0,0,1,1.5-1.5h5.3V4a1,1,0,0,0,1,1h3.8v9.3A1.5,1.5,0,0,1,11.18,15.8Z"/></g><path id="_Trazado_" data-name="&lt;Trazado&gt;" class="cls-2" d="M8.27,4.93"/></svg>