<svg id="Capa_1" data-name="Capa 1" xmlns="http://www.w3.org/2000/svg" viewBox="0 0 16 15"><defs><style>.cls-1{fill:#666;}</style></defs><title>memicon-feedback</title><polygon id="_Trazado_" data-name="&lt;Trazado&gt;" class="cls-1" points="4 11 4 15 8 11 4 11"/><path id="_Trazado_compuesto_" data-name="&lt;Trazado compuesto&gt;" class="cls-1" d="M15,0H1A1,1,0,0,0,0,1v9a1,1,0,0,0,1,1H15a1,1,0,0,0,1-1V1A1,1,0,0,0,15,0ZM3,7A1.5,1.5,0,1,1,4.5,5.5,1.5,1.5,0,0,1,3,7ZM8,7A1.5,1.5,0,1,1,9.5,5.5,1.5,1.5,0,0,1,8,7Zm5,0a1.5,1.5,0,1,1,1.5-1.5A1.5,1.5,0,0,1,13,7Z"/></svg>