<svg id="Capa_1" data-name="Capa 1" xmlns="http://www.w3.org/2000/svg" viewBox="0 0 17 14.43"><defs><style>.cls-1{fill:#666;}</style></defs><title>memicon-subjects</title><g id="_Grupo_" data-name="&lt;Grupo&gt;"><path id="_Trazado_" data-name="&lt;Trazado&gt;" class="cls-1" d="M7.84,10.15l-3.59-2v2.09a1.4,1.4,0,0,0,.68,1.2l1.86,1.13a4.69,4.69,0,0,0,4.85,0l1.86-1.13a1.4,1.4,0,0,0,.68-1.2V8.13l-3.59,2A2.81,2.81,0,0,1,7.84,10.15Z" transform="translate(-0.5 -0.29)"/><path id="_Trazado_2" data-name="&lt;Trazado&gt;" class="cls-1" d="M9.22,8.84,17.5,4.38,9.28.29,1,4.34v6.25a.24.24,0,0,1-.24.24h0a.23.23,0,0,0-.23.23v2.69a1,1,0,0,0,.91,1,.94.94,0,0,0,1-1V11.06a.23.23,0,0,0-.23-.23h0a.23.23,0,0,1-.23-.24V4.92Z" transform="translate(-0.5 -0.29)"/></g></svg>