<svg id="Capa_1" data-name="Capa 1" xmlns="http://www.w3.org/2000/svg" viewBox="0 0 179.99 160"><defs><style>.cls-1{fill:#666;}</style></defs><title>memicon-whiteboard</title><path id="_Trazado_compuesto_" data-name="&lt;Trazado compuesto&gt;" class="cls-1" d="M171,5H9a9,9,0,0,0-9,9,9.44,9.44,0,0,0,8,8.94v77.18A23.9,23.9,0,0,0,32,124h29.8c-7.48,12-26.37,27.7-36.7,35.82A2.88,2.88,0,0,0,26.93,165h3.4a67.72,67.72,0,0,0,23.21-3.72c5.36-1.95,11-4.71,15-8.7,7.3-7.29,9.35-17.58,9.93-28.58h23.13c.57,11,2.63,21.4,9.92,28.7,4,4,9.62,6.6,15,8.55A67.71,67.71,0,0,0,149.68,165h3.4a2.88,2.88,0,0,0,1.85-5.18C144.6,151.7,125.72,136,118.23,124H147a24,24,0,0,0,24-23.88V23h0a9,9,0,0,0,0-18Zm-18,95.12a5.93,5.93,0,0,1-6,5.88H32a5.88,5.88,0,0,1-6-5.88V23H153Z" transform="translate(-0.02 -5)"/></svg>