<svg id="Capa_1" data-name="Capa 1" xmlns="http://www.w3.org/2000/svg" viewBox="0 0 170 186.82"><defs><style>.cls-1{fill:#fff;}</style></defs><title>memicon-privacy</title><g id="_Grupo_" data-name="&lt;Grupo&gt;"><g id="_Grupo_2" data-name="&lt;Grupo&gt;"><path id="_Trazado_compuesto_" data-name="&lt;Trazado compuesto&gt;" class="cls-1" d="M129.61,115.52h9L140.83,129l3.83,1.59,11.88-7.66,6.07,6.07L155,140.86l1.59,3.83L170,146.93v9l-13.46,2.24L155,162l7.66,11.88-6.07,6.07-11.88-7.66-3.83,1.59-2.24,13.46h-9l-2.24-13.46-3.83-1.59-11.88,7.66-6.07-6.07L113.25,162l-1.59-3.83L98.2,155.91v-9l13.46-2.24,1.59-3.83L105.59,129l6.07-6.07,11.88,7.66,3.83-1.59ZM134.1,138a13.46,13.46,0,1,0,13.46,13.46A13.45,13.45,0,0,0,134.1,138" transform="translate(0 -0.5)"/></g><path id="_Trazado_compuesto_2" data-name="&lt;Trazado compuesto&gt;" class="cls-1" d="M93.2,151.42A40.9,40.9,0,0,1,145,112V91.37C145,83.09,138.28,76,130,76h-8V50.5a50,50,0,0,0-100,0V76H15C6.72,76,0,83.09,0,91.37v76A14.69,14.69,0,0,0,15,182h92A40.79,40.79,0,0,1,93.2,151.42ZM37,50.5a35,35,0,0,1,70,0V76H37Z" transform="translate(0 -0.5)"/></g></svg>