<svg id="Capa_1" data-name="Capa 1" xmlns="http://www.w3.org/2000/svg" viewBox="0 0 175 120"><defs><style>.cls-1{fill:#fff;}</style></defs><title>icon-contact</title><g id="_Grupo_" data-name="&lt;Grupo&gt;"><path id="_Trazado_" data-name="&lt;Trazado&gt;" class="cls-1" d="M88.51,85.8a9,9,0,0,0,12.73,0l65.44-65.4a20.58,20.58,0,0,0-4.18-.4H27.5a20.31,20.31,0,0,0-4.37.45Z" transform="translate(-7.5 -20)"/><path id="_Trazado_2" data-name="&lt;Trazado&gt;" class="cls-1" d="M125.46,78.54l53.17,53.17a19.91,19.91,0,0,0,3.87-11.79v-80a19.91,19.91,0,0,0-5.1-13.31Z" transform="translate(-7.5 -20)"/><path id="_Trazado_3" data-name="&lt;Trazado&gt;" class="cls-1" d="M64.41,78.67,12.48,26.74a19.9,19.9,0,0,0-5,13.18v80a19.91,19.91,0,0,0,3.87,11.79Z" transform="translate(-7.5 -20)"/><path id="_Trazado_4" data-name="&lt;Trazado&gt;" class="cls-1" d="M117,87l-7.26,7.25a21,21,0,0,1-29.69,0L72.9,87.15,21.17,138.92A19.84,19.84,0,0,0,27.5,140h135a19.84,19.84,0,0,0,6.33-1.08Z" transform="translate(-7.5 -20)"/></g></svg>