<svg id="Capa_1" data-name="Capa 1" xmlns="http://www.w3.org/2000/svg" viewBox="0 0 160 160"><defs><style>.cls-1{fill:#78a2e8;}</style></defs><title>memicon-purchases-sel</title><g id="_Grupo_" data-name="&lt;Grupo&gt;"><rect id="_Rect치ngulo_" data-name="&lt;Rect치ngulo&gt;" class="cls-1" x="91.44" y="14.51" width="33.17" height="74.61" transform="translate(68.39 -61.16) rotate(45)"/><path id="_Rect치ngulo_2" data-name="&lt;Rect치ngulo&gt;" class="cls-1" d="M148.18,3.06h1.2a16,16,0,0,1,16,16v0a0,0,0,0,1,0,0H132.2a0,0,0,0,1,0,0v0a16,16,0,0,1,16-16Z" transform="translate(51.5 -101.92) rotate(45)"/><path id="_Trazado_" data-name="&lt;Trazado&gt;" class="cls-1" d="M54.9,110.7l23.32-1.34a5.33,5.33,0,0,0,3.46-9.09l-22-22a5.32,5.32,0,0,0-9.08,3.46l-1.35,23.32A5.34,5.34,0,0,0,54.9,110.7Z" transform="translate(0.11 0.05)"/></g><path id="_Trazado_2" data-name="&lt;Trazado&gt;" class="cls-1" d="M139.89,71.83V130a10,10,0,0,1-10,10h-100a10,10,0,0,1-10-10V30a10,10,0,0,1,10-10H90L110,0H20.47A20.59,20.59,0,0,0-.11,20.53V139.37A20.58,20.58,0,0,0,20.47,160H139.31a20.57,20.57,0,0,0,20.58-20.58V51.83Z" transform="translate(0.11 0.05)"/></svg>