<svg id="Capa_1" data-name="Capa 1" xmlns="http://www.w3.org/2000/svg" viewBox="0 0 170 170"><defs><style>.cls-1{fill:#78a2e8;}</style></defs><title>memicon-history-sel</title><g id="_Grupo_" data-name="&lt;Grupo&gt;"><path id="_Trazado_compuesto_" data-name="&lt;Trazado compuesto&gt;" class="cls-1" d="M85,0a85,85,0,1,0,85,85A85,85,0,0,0,85,0Zm0,155A70,70,0,0,1,20.54,57.72c3.32-1.49,8.33-3.87,15.65-7.66,16.65-8.6,6.94,10.83,13.32,17.21s19.15-5.83,19.15-19.7c0-10.66,9.09-13.75,15.7-19.86a21.14,21.14,0,0,0,6.21-12.47A70,70,0,0,1,85,155Z"/><path id="_Trazado_" data-name="&lt;Trazado&gt;" class="cls-1" d="M136.93,93.36c-2.08-7.23-9.74-13.13-17.63-13.3-4.94-.12-12.47,2.67-17.06.25-5.27-2.77-5-7.88-10-10.48C87.68,67.45,77.15,72,75.48,87s12.6,13,14.27,18.87S79.86,143.57,88,143.59c13.76,0,13.93-23.45,31.13-31.22C125.34,109.58,139.18,101.19,136.93,93.36Z"/></g></svg>